<svg xmlns="http://www.w3.org/2000/svg" width="260.000000pt" height="265.000000pt" viewBox="0 0 260.000000 265.000000" preserveAspectRatio="xMidYMid meet"><g transform="translate(0.000000,265.000000) scale(0.100000,-0.100000)" fill="#000000" stroke="none"><path d="M510 1790 l0 -101 23 12 c12 6 64 39 115 72 80 53 92 65 92 89 l0 28 -115 0 -115 0 0 -100z"></path><path d="M1450 1830 l0 -60 280 0 281 0 -3 58 -3 57 -277 3 -278 2 0 -60z m130 15 c18 -22 3 -35 -41 -35 -27 0 -42 5 -46 16 -12 32 63 48 87 19z"></path><path d="M510 1090 c0 -368 3 -470 13 -472 6 -1 46 -2 87 -2 41 -1 139 -2 218 -4 l142 -2 0 -55 0 -55 -92 0 -93 -1 50 -44 49 -45 319 0 318 0 -3 43 -3 42 -97 3 -98 3 0 54 0 55 228 2 227 3 3 218 2 218 -37 -3 -38 -3 -3 -167 -2 -168 -555 0 -555 0 2 388 3 387 428 3 427 2 0 35 0 35 -470 0 -470 0 0 -470z"></path><path d="M750 1330 c0 -18 7 -20 85 -20 78 0 85 2 85 20 0 18 -7 20 -85 20 -78 0 -85 -2 -85 -20z"></path><path d="M984 1330 c0 -19 7 -20 127 -20 118 0 127 1 132 20 5 19 0 20 -127 20 -125 0 -132 -1 -132 -20z"></path><path d="M1270 1330 c0 -17 7 -20 45 -20 38 0 45 3 45 20 0 17 -7 20 -45 20 -38 0 -45 -3 -45 -20z"></path><path d="M1400 1330 c0 -13 7 -20 20 -20 13 0 20 7 20 20 0 13 -7 20 -20 20 -13 0 -20 -7 -20 -20z"></path><path d="M1500 1280 c0 -19 5 -21 58 -18 43 2 57 7 57 18 0 11 -14 16 -57 18 -53 3 -58 1 -58 -18z"></path><path d="M1635 1290 c-4 -7 -3 -16 3 -22 14 -14 57 -6 57 12 0 18 -50 26 -60 10z"></path><path d="M1715 1290 c-13 -21 11 -31 61 -28 36 2 49 7 49 18 0 19 -99 27 -110 10z"></path><path d="M1855 1290 c-13 -21 11 -31 61 -28 36 2 49 7 49 18 0 19 -99 27 -110 10z"></path><path d="M750 1250 c0 -19 7 -20 165 -20 158 0 165 1 165 20 0 19 -7 20 -165 20 -158 0 -165 -1 -165 -20z"></path><path d="M1170 1250 c0 -19 7 -20 90 -20 83 0 90 1 90 20 0 19 -7 20 -90 20 -83 0 -90 -1 -90 -20z"></path><path d="M1500 1210 c0 -19 5 -21 58 -18 43 2 57 7 57 18 0 11 -14 16 -57 18 -53 3 -58 1 -58 -18z"></path><path d="M1635 1220 c-13 -22 12 -31 76 -28 49 2 64 7 64 18 0 12 -15 16 -67 18 -41 2 -69 -1 -73 -8z"></path><path d="M1795 1220 c-11 -18 10 -32 41 -28 40 4 38 32 -3 36 -17 2 -34 -2 -38 -8z"></path><path d="M1890 1210 c0 -16 7 -20 35 -20 28 0 35 4 35 20 0 16 -7 20 -35 20 -28 0 -35 -4 -35 -20z"></path><path d="M930 1175 c0 -12 39 -15 255 -17 237 -3 255 -2 255 15 0 16 -19 17 -255 17 -217 0 -255 -2 -255 -15z"></path><path d="M1500 1140 c0 -19 5 -21 58 -18 43 2 57 7 57 18 0 11 -14 16 -57 18 -53 3 -58 1 -58 -18z"></path><path d="M1635 1150 c-14 -23 11 -30 101 -30 87 0 94 1 94 20 0 19 -7 20 -94 20 -53 0 -98 -4 -101 -10z"></path><path d="M1857 1154 c-4 -4 -7 -14 -7 -21 0 -11 14 -13 58 -11 43 2 57 7 57 18 0 11 -14 16 -50 18 -28 2 -54 0 -58 -4z"></path><path d="M750 1095 c0 -11 12 -15 50 -15 38 0 50 4 50 15 0 11 -12 15 -50 15 -38 0 -50 -4 -50 -15z"></path><path d="M1000 1095 c0 -11 12 -15 50 -15 38 0 50 4 50 15 0 11 -12 15 -50 15 -38 0 -50 -4 -50 -15z"></path><path d="M1130 1095 c0 -11 12 -15 50 -15 38 0 50 4 50 15 0 11 -12 15 -50 15 -38 0 -50 -4 -50 -15z"></path><path d="M1260 1095 c0 -11 12 -15 50 -15 38 0 50 4 50 15 0 11 -12 15 -50 15 -38 0 -50 -4 -50 -15z"></path><path d="M750 1018 c0 -16 11 -18 85 -18 74 0 85 2 85 18 0 15 -11 17 -85 17 -74 0 -85 -2 -85 -17z"></path><path d="M966 1018 c-4 -17 8 -18 140 -18 121 0 144 2 144 15 0 8 -6 15 -12 16 -7 0 -70 1 -140 2 -113 2 -127 0 -132 -15z"></path><path d="M750 940 c0 -20 7 -20 415 -20 408 0 415 0 415 20 0 20 -7 20 -415 20 -408 0 -415 0 -415 -20z"></path><path d="M750 860 c0 -19 7 -20 170 -20 163 0 170 1 170 20 0 19 -7 20 -170 20 -163 0 -170 -1 -170 -20z"></path><path d="M1150 860 c0 -19 7 -20 90 -20 83 0 90 1 90 20 0 19 -7 20 -90 20 -83 0 -90 -1 -90 -20z"></path><path d="M1400 860 c0 -19 7 -20 90 -20 83 0 90 1 90 20 0 19 -7 20 -90 20 -83 0 -90 -1 -90 -20z"></path><path d="M750 783 c0 -17 26 -18 415 -18 389 0 415 1 415 18 0 16 -26 17 -415 17 -389 0 -415 -1 -415 -17z"></path></g></svg>